<svg width="228" height="228" viewBox="0 0 228 228" fill="none" xmlns="http://www.w3.org/2000/svg">
<path d="M182 0H45.5C20.3612 0 0 22.4725 0 50.1212V177.129C0 204.778 20.3612 227.25 45.5 227.25H182C207.139 227.25 227.5 204.778 227.5 177.129V50.1212C227.5 22.4725 207.139 0 182 0ZM73.9375 52.6463C88.3837 52.6463 100.214 65.7762 100.214 81.81C100.214 97.8437 88.3837 110.974 73.9375 110.974C59.4913 110.974 47.6613 97.8437 47.6613 81.81C47.6613 65.7762 59.4913 52.6463 73.9375 52.6463ZM117.959 172.457C116.935 173.72 115.343 174.477 113.75 174.477H34.125C32.5325 174.477 30.94 173.72 29.9163 172.457C28.8925 171.195 28.3238 169.428 28.4375 167.66C30.3713 146.45 45.6138 129.659 64.7238 127.639C70.7525 127.007 77.0088 127.007 83.0375 127.639C102.148 129.659 117.504 146.45 119.324 167.66C119.551 169.428 118.982 171.195 117.959 172.457ZM193.375 173.594H170.625C165.961 173.594 162.094 169.301 162.094 164.125C162.094 158.949 165.961 154.656 170.625 154.656H193.375C198.039 154.656 201.906 158.949 201.906 164.125C201.906 169.301 198.039 173.594 193.375 173.594ZM193.375 123.094H147.875C143.211 123.094 139.344 118.801 139.344 113.625C139.344 108.449 143.211 104.156 147.875 104.156H193.375C198.039 104.156 201.906 108.449 201.906 113.625C201.906 118.801 198.039 123.094 193.375 123.094ZM193.375 72.5938H136.5C131.836 72.5938 127.969 68.3012 127.969 63.125C127.969 57.9488 131.836 53.6562 136.5 53.6562H193.375C198.039 53.6562 201.906 57.9488 201.906 63.125C201.906 68.3012 198.039 72.5938 193.375 72.5938Z" fill="white"/>
</svg>
