<svg width="130" height="130" viewBox="0 0 130 130" fill="none" xmlns="http://www.w3.org/2000/svg">
<path d="M104.6 129.939H85.1071C82.039 130.277 79.1172 128.518 77.9956 125.635C70.7786 111.171 62.9276 96.9401 56.3851 81.9473C44.6614 56.6241 46.4778 27.1027 61.1883 3.39191C62.0783 1.86494 64.0044 0 65.4633 0C66.9465 0 68.6817 2.03596 69.4863 3.62808C89.1504 43.032 108.831 82.4563 128.535 121.905C131.457 127.569 130.1 129.878 123.627 129.943L104.6 129.939ZM25.6556 129.939H5.61359C-0.0145885 129.939 -1.2662 127.671 1.21264 122.707C11.3312 102.665 21.3603 82.6436 31.2878 62.6872C33.9983 57.0231 36.1358 57.0231 39.9028 61.7099C54.1907 78.421 59.2906 101.134 53.512 122.365C51.6509 129.532 50.635 130 43.4179 130L25.6556 129.939Z" fill="white"/>
</svg>
